<?xml version="1.0" encoding="utf-8"?>
<!-- Generator: Adobe Illustrator 19.0.0, SVG Export Plug-In . SVG Version: 6.00 Build 0)  -->
<svg version="1.1" id="Warstwa_1" xmlns="http://www.w3.org/2000/svg" xmlns:xlink="http://www.w3.org/1999/xlink" x="0px" y="0px"
	 viewBox="0 0 873 166.7" style="enable-background:new 0 0 873 166.7;" xml:space="preserve">
<style type="text/css">
	.st0{fill:#010101;}
	.st1{fill:#CF7628;}
</style>
<path id="XMLID_16_" class="st0" d="M199.2,143.4c-3.7-4.6-7.4-9.2-11.2-13.6c-5.5-6.4-11.2-12.8-16.8-19.2
	c-0.3-0.4-0.6-0.5-1.1-0.3c-0.9,0.2-1.9,0.1-2.8,0.2c-0.3,0-0.8,0.1-1,0.3c-4.1,4.6-8.2,9.3-12.3,14c-0.2,0.3-0.4,0.8-0.3,1.2
	c0.4,1.7,0.2,3.3-1.1,4.6c-1.3,1.3-2.9,1.5-4.6,1.1c-0.3-0.1-0.8,0-1.1,0.2c-7.4,6.1-14.7,12.3-22.1,18.4c-1.5,1.2-2.9,2.5-4.4,3.7
	c-0.5,0.4-0.8,0.8-0.8,1.5c-0.1,1.8-1,3.2-2.8,3.9c-1.7,0.7-3.3,0.4-4.6-0.8c-0.5-0.5-1-0.5-1.7-0.5c-4.2,0.5-8.4,1-12.6,1.5
	c-4.8,0.6-9.5,1.1-14.3,1.7c-1.9,0.2-3.8,0.5-5.7,0.7c-0.7,0.1-1.1,0.2-1.4,1c-0.7,2.1-2.8,3.2-4.8,2.9c-2.3-0.4-3.7-2-3.8-4.3
	c0-0.6-0.2-0.8-0.7-1c-12.3-5-24.7-10-37-15c-0.6-0.2-0.9-0.1-1.4,0.3c-1.7,1.6-4.2,1.6-5.9,0.1c-1.7-1.5-2.1-4-0.7-5.8
	c0.5-0.7,0.5-1.2,0.1-1.9c-4.9-10.1-9.8-20.2-14.7-30.3c-0.3-0.6-0.5-0.9-1.3-0.9c-2,0.1-3.7-1.4-4.2-3.3c-0.5-2,0.3-4,2.2-5
	c0.6-0.3,0.8-0.6,0.7-1.3C4.8,93.3,4.6,89,4.3,84.7c-0.2-4.1-0.5-8.2-0.8-12.3c0-0.3-0.4-0.7-0.7-0.9c-1.9-0.9-3.1-2.8-2.8-4.7
	c0.4-2.2,1.9-3.7,4.1-3.9c0.6,0,0.7-0.4,0.8-0.8c2.7-7.5,5.3-15,8-22.5c0.4-1.1,0.6-2,0.1-3.2c-1.1-2.8,1.1-5.8,4.2-5.7
	c0.8,0,1.3-0.3,1.8-0.7c7.8-6.6,15.5-13.2,23.3-19.7c0.5-0.4,0.7-0.8,0.5-1.4c-0.5-2,0.7-4.1,2.6-5c1.9-0.8,4.3-0.2,5.4,1.6
	c0.4,0.7,0.9,0.8,1.6,0.8C57.8,5.9,63.1,5.4,68.4,5c4.6-0.4,9.2-0.7,13.8-1.1c2.8-0.2,5.5-0.5,8.3-0.7c0.5,0,0.9-0.2,1.1-0.7
	c1-1.7,2.9-2.6,4.7-2.3c1.9,0.4,3.3,1.9,3.7,3.9c0.1,0.4,0.4,0.8,0.7,1c11.4,5.9,22.8,11.7,34.2,17.5c0.5,0.3,0.9,0.2,1.4-0.1
	c1.7-1.1,4-0.9,5.4,0.5c1.4,1.3,1.8,3.5,0.9,5.3c-0.9,1.8-2.9,2.7-4.9,2.3c-0.4-0.1-0.9,0.1-1.2,0.3c-6.7,6.6-13.3,13.3-19.9,19.9
	c-0.1,0.1-0.2,0.2-0.3,0.3c0.6,1.4,0.7,2.9-0.1,4.3c-1,1.7-2.9,2.6-4.9,2.1c-1.9-0.4-3.3-2.1-3.4-4.1c0-0.7-0.3-1-0.9-1.3
	c-6.8-3.1-13.7-6.3-20.5-9.5c-0.5-0.3-0.9-0.2-1.3,0.2c-1.5,1.3-3.4,1.4-5.1,0.4c-0.6-0.4-1.1-0.4-1.7,0c-6,3-12,5.9-18,8.9
	c-0.7,0.3-1,0.6-1,1.5c0,2.2-1.7,3.9-4.2,4.1c-0.6,0.1-0.9,0.2-1.1,0.7c-3.2,6.7-6.5,13.3-9.8,20c-0.1,0.3-0.2,0.8,0,1.1
	c0.7,1.8,0.6,3.4-0.6,4.8c-0.3,0.4-0.4,0.7-0.2,1.2c3.7,7.9,7.4,15.7,11.1,23.6c0.2,0.3,0.6,0.7,1,0.8c2.5,0.6,3.7,1.9,3.8,4.4
	c0,0.7,0.5,0.7,0.9,0.8c5.1,1.4,10.1,2.8,15.2,4.3c3.4,1,6.8,1.9,10.2,2.9c0.6,0.2,1,0.1,1.5-0.3c1.3-1.3,2.9-1.5,4.6-0.9
	c0.6,0.2,0.9,0.1,1.4-0.2c10.6-8.6,21.3-17.1,31.9-25.7c0.7-0.6,1.4-1.1,2.1-1.7c0.9-0.7,1.7-1.4,1.9-2.8c0.3-2,2.2-3.1,4.3-3.2
	c0.4,0,1-0.2,1.3-0.5c9.7-10.1,19.4-20.2,29.1-30.2c0.2-0.2,0.3-0.3,0.3-0.3c-0.3-1.2-0.7-2.2-0.7-3.2c-0.1-3.4,3.5-5.5,6.5-3.8
	c0.7,0.4,1,0.3,1.5-0.2c8.9-8.6,17.8-17.1,26.7-25.6c0.6-0.5,0.8-0.9,0.5-1.8c-0.7-1.8,0.2-4,1.8-5c1.7-1.1,3.9-0.9,5.4,0.5
	c0.6,0.6,1,0.5,1.7,0.3c10.1-4.3,20.2-8.5,30.3-12.7c0.7-0.3,1.1-0.6,1.3-1.4c0.3-1.8,1.9-3.1,3.9-3.4c1.6-0.2,3.5,0.7,4.3,2.3
	c0.3,0.6,0.7,0.9,1.3,0.9c4.3,0.5,8.7,1.1,13,1.7c4.9,0.6,9.9,1.3,14.8,1.9c1.9,0.2,3.7,0.5,5.6,0.7c0.4,0,0.9-0.1,1.2-0.4
	c1.5-1.4,3.3-1.8,5-1c1.7,0.8,2.7,2.3,2.6,4.4c0,0.7,0.2,1,0.7,1.4c8.6,6.5,17.2,13.1,25.8,19.6c0.3,0.2,0.9,0.3,1.3,0.2
	c1.9-0.5,3.9,0.1,5,1.6c1.1,1.6,1.1,3.5,0.1,5.2c-0.2,0.3-0.3,0.9-0.1,1.2c3.8,10.2,7.7,20.3,11.5,30.5c0.2,0.5,0.3,0.8,1,0.9
	c2.1,0.1,3.9,1.8,4.1,3.8c0.2,2.3-1,4.3-3.1,4.8c-0.8,0.2-1,0.6-1.1,1.4c-0.9,5.1-1.7,10.2-2.7,15.4c-0.2,0.9-0.1,1.4,0.7,2
	c1.6,1,2.2,3,1.7,4.8c-0.5,1.7-2.1,3.1-4,3.2c-0.6,0-0.9,0.2-1.1,0.8c-3.6,9-7.2,18.1-10.9,27.1c-0.2,0.4-0.2,0.9,0,1.3
	c1.4,3.5-1.1,6.7-4.8,6.3c-0.5-0.1-1.1,0-1.5,0.3c-11.4,6.3-22.8,12.6-34.2,18.9c-0.5,0.3-0.7,0.6-0.7,1.2c0,2.1-1.4,3.9-3.5,4.4
	c-1.9,0.4-4-0.5-4.9-2.4c-0.3-0.6-0.6-0.8-1.3-0.8c-11.2,0-22.4,0-33.5,0c-0.6,0-1,0.1-1.4,0.8c-0.9,1.5-3.1,2.2-4.8,1.6
	c-1.8-0.5-3.1-2.2-3.1-4c0-0.7-0.2-1-0.8-1.4c-6.2-3.6-12.5-7.2-18.7-10.7c-0.3-0.2-0.8-0.2-1.1,0c-2,1.2-4,1.1-5.6-0.3
	c-1.6-1.4-1.9-3.6-0.8-5.6C199,143.7,199.1,143.6,199.2,143.4 M227,54.8c0.1,3.4-2.7,5.5-5.9,4.6c-0.3-0.1-0.8-0.1-1,0.1
	c-5.7,5-11.4,10.1-17,15.1c-0.2,0.2-0.4,0.7-0.3,1c0.3,1.3,0.2,2.6-0.6,3.7c-0.3,0.5-0.3,0.8,0.1,1.2c6.8,9.3,13.6,18.6,20.4,27.8
	c0.2,0.3,0.8,0.5,1.1,0.5c2.6-0.3,4.8,1.2,5.1,3.7c0.1,0.7,0.4,1,1,1.2c8.4,3.1,16.8,6.2,25.3,9.2c0.5,0.2,1.1,0.1,1.6-0.1
	c9.3-4.6,18.6-9.2,27.9-13.9c0.4-0.2,0.9-0.7,1-1.1c3-7.2,5.9-14.4,8.8-21.6c0.2-0.6,0.2-0.9-0.3-1.4c-1.8-1.5-2.1-4-0.7-5.9
	c0.3-0.4,0.4-0.7,0.1-1.2c-3.8-7.6-7.6-15.1-11.4-22.7c-0.2-0.5-0.5-0.7-1.1-0.6c-2.6,0.4-5-1.4-5.1-4c0-0.7-0.3-0.9-0.9-1.1
	c-10.2-2.6-20.4-5.2-30.7-7.9c-0.6-0.2-1-0.1-1.5,0.3c-5,3.8-10.1,7.5-15.2,11.3C227.2,53.7,226.8,54.1,227,54.8 M288.3,108.1
	c0.5,0,0.9,0,1.3-0.1c3.7-0.6,7.5-1.2,11.2-1.7c8.5-1.3,17-2.6,25.5-3.8c0.6-0.1,0.8-0.3,0.9-0.9c0.3-0.9,0.6-1.9,1.2-2.6
	c0.6-0.7,0.7-1.3,0.6-2.1c-0.7-4.5-1.4-9.1-2.1-13.6c-0.9-5.8-1.8-11.6-2.7-17.5c-1-6.3-1.9-12.6-2.9-18.9c-0.3-1.9-0.5-3.7-0.8-5.6
	c0-0.3-0.3-0.5-0.5-0.8c-0.2,0.2-0.6,0.4-0.7,0.6c-0.3,0.5-0.5,1-0.8,1.5c-5.9,11.8-11.7,23.6-17.6,35.4c-0.3,0.6-0.3,1,0.1,1.5
	c1.6,2.7,0.2,6-2.9,6.6c-0.6,0.1-1,0.4-1.2,1.1c-1.4,3.5-2.8,7-4.3,10.5C291.1,101,289.7,104.5,288.3,108.1 M316.3,33.5
	c-0.3-0.2-0.5-0.4-0.7-0.6c-8.2-6.2-16.4-12.5-24.6-18.8c-0.9-0.7-1.6-1-2.5-0.1c-0.1,0.1-0.2,0.2-0.3,0.3c0.5,3.2,0.9,6.3,1.4,9.4
	c1.3,8.6,2.6,17.1,3.9,25.7c1.4,9,2.7,17.9,4,26.9c0.1,0.4,0.4,0.7,0.6,1c0.3-0.3,0.7-0.5,0.9-0.8c3.5-6.9,6.9-13.9,10.3-20.8
	c2.6-5.2,5.1-10.3,7.7-15.5c0.2-0.3,0.2-0.9,0-1.1C315.5,37.4,315.3,35.6,316.3,33.5 M270.6,159.2c-0.2-0.2-0.5-0.4-0.8-0.7
	c-6.7-6.4-13.3-12.9-20-19.3c-7.4-7.2-14.9-14.4-22.3-21.6c-0.2-0.2-0.6-0.2-0.9-0.4c-0.1,0.3-0.3,0.6-0.2,0.9
	c0.2,2.2,0.5,4.3,0.8,6.5c0.6,5,1.2,9.9,1.9,14.9c0.7,5.5,1.4,11.1,2.1,16.6c0.1,0.6,0.3,1,0.9,1.2c1.3,0.4,2.2,1.3,2.5,2.6
	c0.2,1,0.7,1,1.6,1c10.6,0,21.2,0,31.8,0C269.3,161.1,270.3,160.9,270.6,159.2 M258.3,126.4c0.2,0.4,0.3,0.7,0.4,0.9
	c5,9.9,10,19.8,14.9,29.6c0.3,0.5,0.6,0.8,1.2,0.9c0.7,0.1,1.4,0.4,1.9,0.8c0.7,0.6,1.2,0.4,1.8,0.1c9.1-5.1,18.3-10.1,27.4-15.2
	c2-1.1,4.1-2.3,6.1-3.4c-0.2-1.1-0.8-1.6-1.9-1.8c-13.1-3-26.2-6-39.3-9.1C266.8,128.3,262.6,127.4,258.3,126.4 M220,113.7
	c-4.8-0.6-9.7-1.2-14.5-1.8c-5.1-0.6-10.2-1.2-15.4-1.9c-5.6-0.7-11.2-1.4-16.7-2.1c-0.3,0-0.6,0.1-0.9,0.2c0.1,0.3,0.2,0.6,0.4,0.8
	c9.6,10.4,18.7,21.3,27.6,32.3c0.4,0.5,0.8,0.7,1.4,0.5c0.6-0.2,1.3-0.2,1.9,0c0.7,0.2,0.9-0.1,1.3-0.6c5.1-7.9,10.3-15.9,15.4-23.8
	c0.5-0.8,0.8-1.4,0.1-2.2C220.2,114.9,220.2,114.3,220,113.7 M221.1,110.4c-2.7-3.7-5.4-7.4-8.1-11.1c-4.2-5.8-8.4-11.5-12.6-17.3
	c-0.3-0.5-0.6-0.7-1.3-0.6c-0.7,0.1-1.4,0-2-0.2c-0.5-0.2-0.8-0.1-1.2,0.3c-7.6,7.4-15.2,14.8-22.8,22.3c-0.4,0.4-0.5,0.8-0.3,1.3
	c0.2,0.6,0.5,0.7,1,0.7c0.5,0,1,0.1,1.5,0.2c4.5,0.6,9.1,1.1,13.6,1.7c5.1,0.6,10.2,1.3,15.3,1.9c5.1,0.6,10.2,1.2,15.3,1.9
	C220.2,111.4,220.8,111.4,221.1,110.4 M225.7,51.9c5-3.7,10-7.5,15.1-11.3c-0.4-0.2-0.7-0.4-1.1-0.6C229,35,218.2,29.8,207.4,24.7
	c-1-0.5-1.9-1-3-0.1c-0.1,0.1-0.3,0.1-0.5,0.1c-0.9,0-1,0.7-1.1,1.4c-0.1,2.6-0.3,5.2-0.5,7.7c-0.4,5.4-0.7,10.7-1.1,16.1
	c-0.1,1.1-0.1,2.2-0.2,3.5c1.6,0,3.1,0,4.5,0c3.9,0.1,7.8,0.3,11.7,0.4c0.4,0,0.9-0.2,1.1-0.4C220.3,50.5,222.6,50,225.7,51.9
	 M248.3,5.6c-0.1,0.1-0.5,0.2-0.7,0.5c-0.3,0.5-0.7,1-0.1,1.7c2,2.3,3.9,4.6,5.8,7c8.4,10.2,16.8,20.5,25.3,30.7
	c0.2,0.2,0.7,0.5,0.9,0.4c0.3-0.1,0.6-0.5,0.6-0.8c0.4-2.5,0.7-5,1-7.5c0.7-5,1.4-10,2.1-14.9c0.4-2.6,0.7-5.2,1.1-7.8
	c0-0.4-0.1-0.9-0.4-1.2c-1-0.9-1.6-2-1.8-3.3c0-0.2-0.3-0.6-0.6-0.6c-3.1-0.4-6.3-0.8-9.4-1.2c-4.4-0.6-8.9-1.1-13.3-1.7
	C255.3,6.5,251.9,6,248.3,5.6 M83.4,34.8c0,0,0-0.1,0.1-0.2c3.1-8.5,6.2-17,9.4-25.5c0.2-0.6,0.1-0.9-0.3-1.3
	c-0.4-0.4-0.8-0.9-1-1.4c-0.3-0.7-0.6-0.8-1.3-0.8c-4.2,0.4-8.5,0.7-12.7,1c-3.6,0.3-7.3,0.6-10.9,0.8C62,7.8,57.3,8.2,52.6,8.6
	c-0.5,0-0.9-0.1-1.1,0.6c-0.2,0.6-0.1,0.9,0.3,1.4c2.6,2.3,5.2,4.6,7.8,6.9c6.6,5.9,13.3,11.8,19.9,17.7c0.2,0.2,0.6,0.3,0.8,0.3
	C81.3,35.3,82.2,35.1,83.4,34.8 M194.4,79.5c-0.1-1.3-0.4-2.3-0.3-3.3c0.1-0.7-0.1-1-0.6-1.4c-7.3-5.9-14.5-11.8-21.8-17.7
	c-0.3-0.3-1-0.6-1.1-0.5c-0.6,0.6-1.8,0.5-1.8,1.9c0.1,14,0.1,28.1,0,42.1c0,1.4,1.1,1.2,1.7,1.6c0.2,0.1,0.7-0.2,1-0.4
	c4.2-4.1,8.4-8.2,12.6-12.3C187.6,86.1,191.1,82.8,194.4,79.5 M129.6,94.5c-0.1,0.1-0.3,0.2-0.4,0.3c-4.9,4-9.9,7.9-14.8,11.9
	c-6.5,5.3-13.1,10.5-19.6,15.8c-0.5,0.4-0.6,0.7-0.5,1.3c0.2,1,0.1,2.1-0.1,3.1c-0.1,0.5-0.1,0.8,0.2,1.2c1.1,1.4,2.3,2.8,3.4,4.2
	c0.4,0.6,0.9,0.7,1.5,0.6c7.1-0.9,14.2-1.7,21.3-2.5c0.8-0.1,1.1-0.5,1.3-1.2c1.5-5.5,2.9-11,4.4-16.5c1.5-5.7,3-11.4,4.6-17
	C130.5,95.3,130.1,94.9,129.6,94.5 M289.2,110.4c-0.1,0.1-0.2,0.3-0.3,0.4c0.3,0.2,0.7,0.3,0.9,0.6c2.7,2.6,5.4,5.2,8.1,7.8
	c4.9,4.7,9.7,9.3,14.6,14c0.2,0.2,0.8,0.5,0.9,0.4c1.3-0.7,2.7-0.7,4.1-0.2c0.1-0.3,0.2-0.4,0.3-0.6c3.6-8.8,7.1-17.7,10.7-26.5
	c0.4-0.9-0.2-1.7-1.2-1.6c-3.6,0.5-7.2,1.1-10.8,1.7c-5.9,0.9-11.8,1.8-17.8,2.7C295.6,109.4,292.4,109.9,289.2,110.4 M11.6,75.3
	c-0.1,0.5-0.2,0.8-0.2,1.2c-0.5,3.6-1,7.1-1.5,10.7c-0.5,3.5-1,7-1.5,10.5c-0.1,0.7,0,1.1,0.7,1.5c1,0.6,1.6,1.6,1.8,2.7
	c0.1,0.7,0.5,1,1.1,1.1c12.6,3.1,25.2,6.2,37.7,9.3c0.4,0.1,0.8,0,1.3,0c-0.2-0.4-0.4-0.8-0.7-1c-11.8-11.1-23.7-22.1-35.6-33.2
	C13.7,77.2,12.7,76.3,11.6,75.3 M241.5,38.3v-1.6c0-8.7,0-17.4,0-26.1c0-1.2,0.1-2.4-1.3-3c-0.1-0.1-0.2-0.2-0.3-0.3
	c-0.3-0.6-0.8-0.6-1.4-0.3c-10.2,4.3-20.4,8.6-30.6,12.8c-1,0.4-0.8,1.1-0.9,1.8c0,0.2,0.5,0.7,0.9,0.8c9.2,4.4,18.4,8.8,27.6,13.1
	C237.5,36.4,239.4,37.3,241.5,38.3 M21,37.7C20,38.3,19.9,39,20.5,40c2.6,5,5.1,10,7.7,15c3.6,7.1,7.2,14.2,10.8,21.3
	c0.2,0.3,0.5,0.7,0.8,0.7c0.8,0.2,1.6,0.2,2.6,0.3c3.3-6.7,6.7-13.6,10-20.5c-1.1-1-1.8-2.2-1.8-3.6c0-0.8-0.2-1.1-0.9-1.4
	c-6.3-3.1-12.7-6.2-19-9.3C27.5,40.8,24.2,39.3,21,37.7 M243.9,39.1c11,2.8,22,5.7,33,8.5c-0.1-0.5-0.3-0.8-0.5-1
	C266.2,34.2,256,21.8,245.8,9.4c-0.4-0.5-0.7-0.9-1.5-0.6c-0.7,0.3-0.4,0.8-0.5,1.2c0,9.3,0,18.6,0,28V39.1z M17.8,106.9
	c0,0.1,0,0.1,0,0.2c0.1,0.1,0.3,0.2,0.4,0.2c19,9.3,38,18.6,57,27.9c0.6,0.3,1.4,0.3,2.1,0.3c2-0.2,4-0.5,6-0.7
	c0.6-0.1,0.9-0.3,1.1-0.8c0.7-1.6,1.5-3.2,2.3-4.7c0.3-0.5,0.2-0.9-0.1-1.4c-0.4-0.7-0.8-1.5-0.9-2.4c-0.1-0.6-0.3-0.9-0.9-1
	c-8.5-2.4-17-4.7-25.5-7.1c-0.6-0.2-0.9-0.1-1.4,0.3c-2.4,2.2-6.1,1.3-7.2-1.7c-0.3-0.8-0.7-1-1.4-1.2c-8-2-15.9-3.9-23.9-5.9
	C23,108.1,20.4,107.5,17.8,106.9 M259.5,124.3c17.5,4,34.7,8,51.8,12c0.6-0.7,0-1-0.4-1.3c-8.1-7.7-16.1-15.5-24.2-23.2
	c-0.5-0.5-0.9-0.6-1.5-0.2c-7.2,3.6-14.3,7.2-21.5,10.7C262.5,122.8,261.1,123.5,259.5,124.3 M207.1,147.3c0.2,0.2,0.5,0.3,0.7,0.4
	c5.9,3.4,11.8,6.8,17.6,10.2c1,0.6,1.7,0.9,2.7,0c0.6-0.5,0.9-0.8,0.8-1.6c-0.7-5-1.3-9.9-1.9-14.9c-1-7.6-1.9-15.2-2.9-22.8
	c0-0.3-0.3-0.6-0.5-1c-0.3,0.2-0.8,0.3-1,0.6c-1.1,1.7-2.2,3.4-3.3,5.1c-4.1,6.4-8.3,12.8-12.4,19.2c-0.2,0.3-0.4,0.9-0.2,1.1
	C207.2,144.8,207.4,146,207.1,147.3 M166.4,57.7l-0.3-0.1c-9.9,10.3-19.8,20.6-29.7,30.8c0.6,2.1,2.3,2.7,3.9,3.5
	c4.2,1.9,8.3,3.9,12.4,5.9c1,0.5,1.9,0.9,3,1.4C159.4,85.3,162.9,71.5,166.4,57.7 M12.4,69.2c2,0.9,3.9,1.7,5.9,2.5
	c5.7,2.5,11.4,4.9,17.1,7.4c0.5,0.2,0.9,0.3,1.3-0.3c0.4-0.5,0.4-0.9,0.1-1.5c-2.9-5.7-5.8-11.3-8.6-17c-3.4-6.6-6.8-13.3-10.1-19.9
	c-0.3-0.5-0.6-1-1.2-0.7c-0.3,0.1-0.5,0.7-0.6,1.1c-0.2,1.3-0.4,2.7-0.6,4C14.7,52.9,13.6,61,12.4,69.2 M99.4,7
	c-0.7,0.5-0.9,1-0.6,1.8c2.6,7.6,5.1,15.3,7.7,23c0.1,0.3,0.3,0.7,0.4,1c8.9-2.1,17.8-4.2,26.7-6.4c0.3-0.1,0.7-0.6,0.7-1
	c0-0.3-0.3-0.8-0.6-0.9c-6.5-3.4-13.1-6.7-19.6-10C109.1,12,104.3,9.5,99.4,7 M144.7,127.6c0.5-1.1,0.8-2,1.3-2.8
	c0.4-0.5,0.4-0.9,0.2-1.5c-2.3-5.6-4.6-11.2-6.9-16.8c-1.4-3.4-2.8-6.9-4.2-10.3c-2,0.2-2,0.2-2.4,1.7c-2.6,9.7-5.2,19.5-7.9,29.2
	c-0.2,0.9-0.4,1.8-0.7,2.9C131.3,129.1,138.1,128.3,144.7,127.6 M14.3,108c0,0-0.1,0.1-0.1,0.1c0.3,0.2,0.5,0.5,0.8,0.7
	c11,9.8,22,19.5,32.9,29.3c0.8,0.7,1.5,0.6,2.4,0.5c4.9-0.6,9.8-1.1,14.7-1.7c2.1-0.3,4.3-0.5,6.4-0.8l0-0.2
	C52.4,126.6,33.3,117.3,14.3,108 M44.5,11.6c-8,6.8-16.1,13.6-24,20.3c0.4,1.1,1.2,1.5,2.3,1.5c0.6,0,1.2,0.1,1.8,0.2
	c7.7,0.7,15.5,1.3,23.2,2c1,0.1,2.1,0.1,3.2,0.2c0-0.3,0-0.4,0-0.6c-1.3-7-2.6-14-3.8-21c-0.2-1-0.4-1.9-1.6-2.1
	C45.1,12.1,44.9,11.8,44.5,11.6 M200.7,24.4c-2.2,1.5-28.5,27-28.6,27.8c8.9,0.3,17.8,0.7,26.7,1C199.4,43.6,200.1,34.1,200.7,24.4
	 M45.6,139.1c-11.8-10.5-23.4-20.8-35-31.1c-0.1,0.2-0.1,0.3,0,0.4c4.7,9.7,9.4,19.5,14.1,29.2c0.3,0.6,0.6,0.7,1.2,0.6
	c1.5-0.1,2.8,0.5,3.7,1.8c0.5,0.8,1.1,0.9,1.9,0.8c3.2-0.4,6.5-0.8,9.8-1.2C42.5,139.5,43.9,139.3,45.6,139.1 M270.1,155.5
	c0,0,0.1-0.1,0.1-0.1c0-0.1,0-0.1-0.1-0.2c-4.9-9.7-9.7-19.3-14.6-29c-0.2-0.4-0.7-0.7-1.1-0.9c-8-3-16-5.9-23.9-8.8
	c-0.2-0.1-0.5-0.1-0.8-0.2c0,0.1,0,0.1-0.1,0.2L270.1,155.5z M78,38.1c0.6-0.6,0.3-0.9-0.2-1.4c-2.2-2-4.5-4-6.7-5.9
	c-6.9-6.2-13.9-12.3-20.8-18.5c-0.2-0.2-0.6-0.2-0.9-0.4c-0.1,0.3-0.2,0.6-0.2,0.9c1.2,6.8,2.5,13.7,3.7,20.5c0.2,0.8,0.1,2,0.6,2.4
	c0.5,0.5,1.6,0.3,2.5,0.4C63.4,36.8,70.7,37.5,78,38.1 M52.3,110c-0.1-0.4-0.2-0.5-0.2-0.6c-3.6-7.7-7.2-15.4-10.7-23
	c-0.3-0.6-0.6-0.5-1.1-0.6c-2.1,0-3.7-1.3-4.2-3.2c-0.2-0.6-0.4-1-1-1.2c-7.3-3.2-14.7-6.3-22-9.5c-0.3-0.1-0.6-0.2-0.9-0.3
	c-0.1,0.1-0.2,0.2-0.3,0.3c0.3,0.4,0.5,0.8,0.8,1.1C24,83.6,35.3,94.2,46.6,104.7C48.4,106.5,50.3,108.2,52.3,110 M104.5,33.3
	c-2.7-8-5.3-15.9-8-23.8C96.5,9.3,96.1,9,95.9,9c-0.2,0-0.6,0.2-0.7,0.5c-0.4,0.9-0.7,1.9-1.1,2.9c-2.8,7.7-5.6,15.3-8.5,23
	c-0.3,0.9,0.2,1.4,0.6,1.9c0.2,0.2,0.8,0.2,1.1,0.1c3.8-0.9,7.5-1.8,11.3-2.6C100.6,34.3,102.5,33.8,104.5,33.3 M294.8,75
	C294.9,75,294.9,74.9,294.8,75c-2.8-19.1-5.6-38-8.5-57c-0.3,0.6-0.3,1.1-0.4,1.7c-0.7,5-1.4,10-2.1,14.9c-0.5,3.5-1,7-1.5,10.5
	c-0.1,0.7,0,1.1,0.7,1.5c2,1.3,2.5,3.9,1.3,5.9c-0.4,0.6-0.3,1,0,1.5c2.2,4.4,4.4,8.8,6.7,13.2C292.2,69.9,293.5,72.4,294.8,75
	 M172.3,54.6c7.9,6.4,15.6,12.7,23.3,18.9c2-1.1,2-1.1,2.1-3.3c0.2-3.5,0.5-7,0.7-10.5c0.1-1.4,0.1-2.7,0.2-4.2
	C189.8,55.2,181.2,54.9,172.3,54.6 M137.7,93.2c-0.7,0.8-0.7,1.6-0.3,2.5c1.4,3.2,2.6,6.4,3.9,9.5c2.3,5.7,4.6,11.3,7,17
	c0.1,0.3,0.5,0.6,0.8,0.7c0.2,0,0.6-0.3,0.7-0.6c1.8-6.7,3.5-13.4,5.2-20.1c0.2-0.6,0-0.9-0.6-1.1c-2.2-1-4.3-2-6.5-3.1
	C144.6,96.5,141.1,94.9,137.7,93.2 M107.6,35.1c1.3,3.9,2.5,7.7,3.8,11.4c0.4,1.2,0.5,2.6,2.4,2.5c0.6,0,1.1,0.1,1.6-0.4
	c6.3-6.4,12.7-12.7,19-19.1c0.2-0.2,0.4-0.5,0.6-0.7C134.5,28.6,109.9,34.2,107.6,35.1 M145.7,129.9c-0.3,0-0.4,0-0.5,0
	c-4,0.5-8,0.9-11.9,1.4c-2.9,0.3-5.8,0.7-8.7,1c-0.6,0.1-1.1,0.1-1.3,0.9c-1.6,6.1-3.2,12.1-4.8,18.2c-0.1,0.3,0,0.7,0,1l0.3,0.1
	C127.7,145,136.6,137.5,145.7,129.9 M51,140.8c2,1.8,3.9,3.5,5.8,5.2c0.2,0.2,0.5,0.2,0.8,0.3c6.3,1,12.5,2,18.8,2.9
	c0.3,0,0.8-0.3,0.9-0.6c0.6-1.2,1.2-2.4,1.7-3.6c0.7-1.4,1.4-2.8,2.1-4.3c-1.9-0.9-3.6-1.8-5.4-2.6c-0.3-0.1-0.6-0.1-1-0.1
	c-3.1,0.4-6.2,0.7-9.4,1.1C60.8,139.7,56,140.3,51,140.8 M100.2,135.1c0.2,0.3,0.2,0.4,0.3,0.5c3.8,4.6,7.5,9.3,11.2,13.9
	c0.9,1.1,1.6,2.1,3.2,1.3c0.1,0,0.1,0,0.2,0c0.8,0.2,1.1-0.3,1.2-1c1-4,2.1-7.9,3.2-11.9c0.5-1.7,0.9-3.4,1.4-5.3
	C114,133.5,107.2,134.3,100.2,135.1 M22.5,35.7c0.1,0.1,0.1,0.2,0.2,0.2c9.5,4.7,19,9.3,28.4,14c0.9,0.5,1.2-0.4,1.8-0.7
	c0.2-0.1,0.4-0.7,0.3-1c-0.5-3.1-1.2-6.2-1.7-9.3c-0.1-0.7-0.4-0.9-1-0.9c-3.1-0.3-6.2-0.5-9.3-0.8C35,36.8,28.8,36.2,22.5,35.7
	 M201,55.8c-0.4,5.4-0.7,10.7-1,15.9c0,0.5-0.1,1,0.5,1.3c0.7,0.3,1,0,1.4-0.4c5.4-4.8,10.8-9.6,16.3-14.5c0.3-0.2,0.5-0.7,0.5-1
	c0-0.6-0.4-0.9-1.1-0.9c-4.3-0.1-8.6-0.3-12.9-0.5C203.4,55.7,202.2,55.8,201,55.8 M157.9,100.2c2.2,1,4.4,2.1,6.5,3.1
	c0.1,0.1,0.3,0.1,0.5,0.1c0.6-0.2,1.7-1.6,1.7-2.3V68.2v-1.1c0,0-0.1,0-0.1,0C163.6,78.1,160.8,89.1,157.9,100.2 M111.2,152.8
	c0,0,0.1-0.1,0.1-0.1c-0.7-0.9-1.5-1.8-2.2-2.8c-3.7-4.6-7.5-9.2-11.2-13.8c-0.2-0.3-0.6-0.5-0.9-0.5c-3.6,0.4-7.1,0.8-10.7,1.2
	c-0.2,0-0.6,0.1-0.7,0.3c-0.5,0.8-0.8,1.7-1.3,2.6C93.4,144.1,102.3,148.4,111.2,152.8 M86.7,40c0.4,0.3,0.5,0.4,0.7,0.5
	c6.9,3.2,13.9,6.4,20.8,9.6c0.5,0.2,0.9,0.2,1.2-0.2c0.2-0.3,0.3-0.8,0.2-1.1c-1.3-4.2-2.8-8.3-4.1-12.4c-0.2-0.7-0.5-0.8-1.2-0.6
	c-4.2,1-8.4,2-12.6,3C90.1,39.2,88.5,39.6,86.7,40 M53.8,38.4c0.6,3.2,1.2,6.2,1.6,9.2c0.1,0.9,0.4,1.5,1.3,1.7
	c0.4,0.1,0.8,0.4,1.1,0.7c0.5,0.5,0.8,0.4,1.4,0.2c6-3,12-5.9,18-8.9c0.3-0.1,0.5-0.3,0.8-0.5c0-0.1-0.1-0.2-0.1-0.2
	C70,39.8,62,39.1,53.8,38.4 M331.1,95.4c0,0,0.1,0,0.1-0.1c0.4-2.5,0.9-5,1.3-7.5c0.4-2.5,0.8-5.1,1.3-7.6c0.1-0.6-0.1-0.9-0.5-1.2
	c-2.3-1.6-2.6-4.7-0.7-6.7c0.5-0.6,0.5-1,0.2-1.6c-2.4-6.3-4.8-12.6-7.1-18.8c-0.6-1.6-1.3-3.3-1.9-4.9c-0.1,0-0.1,0-0.2,0.1
	C326.1,63.2,328.6,79.3,331.1,95.4 M106.7,156.3c-0.2-0.1-0.2-0.1-0.3-0.2c-9-1.4-18.1-2.8-27.1-4.2c-0.7-0.1-1,0.1-1.3,0.7
	c-0.7,1.5-1.3,3.1-2.2,4.6c-0.6,1,0.1,1.4,0.4,2.1c0.3,0.7,0.9,0.5,1.4,0.4c2.3-0.2,4.6-0.5,6.9-0.8c6-0.7,12.1-1.4,18.1-2.2
	C104,156.6,105.3,156.5,106.7,156.3 M108,154c0-0.1,0-0.1,0-0.2c-8.2-4-16.4-8-24.7-12.1c-1.3,2.7-2.5,5.2-3.8,7.9
	C89.1,151.1,98.6,152.6,108,154 M151.9,123.6c0.3-0.3,0.4-0.4,0.6-0.5c4-4.5,7.9-9,11.8-13.5c0.1-0.1,0.4-0.3,0.4-0.5
	c-0.3-1.2-0.7-2.4-1.1-3.5c-2.1-1-4.1-2-6.3-3C155.5,109.6,153.8,116.5,151.9,123.6 M36,145.4c0,0,0,0.1,0,0.1
	c10,4.1,20.1,8.1,30.1,12.2c0-0.3-0.1-0.4-0.2-0.5c-3.1-2.8-6.2-5.6-9.4-8.3c-0.3-0.3-0.7-0.4-1.1-0.5c-2.8-0.5-5.6-0.9-8.4-1.3
	C43.3,146.5,39.6,145.9,36,145.4 M76.1,151.5c-5.2-0.8-10.4-1.6-15.5-2.4c0,0.1,0,0.1-0.1,0.2c3.2,2.8,6.4,5.7,9.3,8.3
	c1.3-0.2,2.4-0.4,3.6-0.6C74.3,155.3,75.1,153.4,76.1,151.5 M13.3,45.8c-0.1,0.2-0.2,0.2-0.2,0.3c-2,5.6-4,11.2-5.9,16.8
	c-0.1,0.3,0.1,0.8,0.3,1c0.8,0.8,1.4,1.7,1.4,2.9c0.1,0.8,0.5,1.1,1.3,1.2C11.3,60.7,12.3,53.3,13.3,45.8 M7,90.3c0,0,0.1,0,0.1,0
	c0.7-4.9,1.2-9.8,2.1-14.7c0.3-1.9,0-3.1-1.6-4.1c-0.3-0.2-0.7-0.3-1.1-0.3C6,71.4,5.9,71.9,6,72.4C6.3,78.4,6.6,84.3,7,90.3
	 M35,142.7c0,0,0,0.1,0,0.1c5.8,0.9,11.6,1.8,17.4,2.7c-1.4-1.5-2.8-2.8-4.2-4c-0.2-0.2-0.6-0.2-0.9-0.2c-1.4,0.1-2.8,0.3-4.2,0.5
	C40.4,142.1,37.7,142.4,35,142.7 M86.9,134.3c3-0.4,5.8-0.7,8.8-1c-1.1-1.3-2-2.5-3-3.7c-0.3-0.4-3.4-0.1-3.7,0.4
	C88.3,131.4,87.7,132.8,86.9,134.3 M80.3,137.4c0,0.1,0,0.1-0.1,0.2c0.7,0.3,1.3,0.6,2,1c0.2-0.5,0.4-0.9,0.7-1.5
	C81.9,137.3,81.1,137.4,80.3,137.4"/>
<path id="XMLID_15_" class="st0" d="M461.9,64.2c-0.6-6.3-6.3-11.3-13.2-11.1c-5.9,0.2-15.1,0-15.1,0l5.6,6.4c0,0,5.6,0,10.1,0
	c2.6,0,4.8,1.5,5.8,3.9c0.9,2.3,0.3,5-1.4,6.7c-1.4,1.4-3.2,1.9-5.1,1.8c-4.1,0-8.1-0.1-12.2-0.2c-0.4,0-0.8,0-1.2,0
	c-0.1,0.1-0.1,0.3-0.2,0.4c8,8.1,16.1,16.2,24,24.1c1.8-1.8,3.2-3.2,4.7-4.7c-4.3-4.3-8.7-8.8-13.2-13.3
	C457.5,77.6,462.6,71.5,461.9,64.2"/>
<path id="XMLID_14_" class="st0" d="M407,86.2c-4.7,4.7-11.5,6-17.4,3.4c-6-2.6-9.7-8.5-9.3-15.2c0.3-6.3,3.5-10.8,9.1-13.4
	c5.7-2.6,11.2-1.8,16.2,2c0.2,0.2,0.5,0.4,0.7,0.5l-0.4-0.4l0.4,0.4c0.2,0.2,0.4,0.4,0.6,0.6c1.5-1.5,2.9-2.9,4.6-4.6
	c-0.4-0.3-0.8-0.6-1.1-0.9c-5.3-4.5-11.4-6.3-18.2-5.2c-12.1,2-20,13.1-18.2,25.2c1.6,10.5,10.8,18.6,21.4,18.6
	c6.5,0,11.9-2.4,16.4-6.9L407,86.2z"/>
<path id="XMLID_13_" class="st0" d="M499.2,53.4c-0.2-0.5-0.4-1-0.6-1.5c-0.1,0-0.2,0-0.3,0c-5,15-10.1,30.1-15.1,45.2
	c2,0.7,4,1.3,6.1,2c3-9.1,6-18,9-27c0.1,0,0.2,0,0.3,0c2.9,9,5.9,17.9,8.8,27c1.7-0.5,3.1-1.1,4.7-1.5c1.2-0.3,1.4-0.8,1-1.9
	C508.4,81.6,503.8,67.5,499.2,53.4"/>
<path id="XMLID_12_" class="st0" d="M558.2,55.8c-5.6,0.1-11.3,0.1-16.9,0.1c-0.4,0-1.4,0.1-1.4,0.1v39.2h6V78.5c0,0,1.3,0,1.8,0
	c3.1,0.1,6.3,0.2,9.3,0.2c0.4,0,1.1-0.9,1.1-1.1c0.1-1.9,0.1-4.5,0.1-6.5h-12.3v-9h13.8c0-2-0.1-3.3,0-4.9
	C559.8,56,559.3,55.8,558.2,55.8"/>
<path id="XMLID_11_" class="st0" d="M867.4,54.7c-2.9,5.5-5.8,10.9-8.8,16.4c-3-5.6-5.9-11-8.9-16.4c-2,1.1-3.7,2-5.6,3
	c0.2,0.5,0.4,0.8,0.6,1.1c2.7,5.1,5.3,10.3,8.3,15.3c1.8,3.1,3,6.2,2.7,9.9c-0.2,2.6,0.2,5.2,0.2,7.8v4.5c2,0,3.3-0.1,4.9,0
	c1,0.1,1.2-0.3,1.2-1.3c0-4.9-0.1-9.9,0-14.8c0-1,0.3-2,0.7-2.9c3.2-6.2,6.5-12.3,9.8-18.5c0.2-0.3,0.3-0.7,0.5-1.2
	C871.1,56.6,869.3,55.7,867.4,54.7"/>
<polygon id="XMLID_10_" class="st0" points="587.9,62.1 598.9,62.1 598.9,95.1 604.9,95.1 604.9,62.1 615.9,62.1 615.9,55.1 
	587.9,55.1 "/>
<polygon id="XMLID_9_" class="st0" points="792.9,62.1 804.9,62.1 804.9,95.1 810.9,95.1 810.9,62.1 819.9,62.1 819.9,55.1 
	792.9,55.1 "/>
<rect id="XMLID_8_" x="649.9" y="55.1" class="st0" width="6" height="40"/>
<rect id="XMLID_7_" x="752.9" y="55.1" class="st0" width="6" height="40"/>
<path id="XMLID_6_" class="st0" d="M711.9,84c-6-9.5-10.7-19.8-16.2-28.8h-4.8v40h7V71c5,8.4,9.1,16.1,13.9,24.1h7.1V60.6v-5.5h-7
	V84z"/>
<g id="XMLID_1_">
	<path id="XMLID_2_" class="st1" d="M501.3,123.4h3.2c5.3,0,8.3,2.9,8.3,7.7c0,5.1-3.1,7.7-8.3,7.7h-3.2V123.4z M504.8,137.2
		c3.7,0,6.1-2.1,6.1-6.1c0-3.9-2.4-6.1-6.1-6.1h-1.7v12.2H504.8z"/>
	<path id="XMLID_113_" class="st1" d="M524.1,123.4h7.3v1.6h-5.5v5.1h4.8v1.6h-4.8v5.4h5.8v1.6h-7.5V123.4z"/>
	<path id="XMLID_115_" class="st1" d="M543.3,123.4h7.3v1.6h-5.5v5.1h4.8v1.6h-4.8v5.4h5.8v1.6h-7.5V123.4z"/>
	<path id="XMLID_117_" class="st1" d="M562.5,123.4h4.2c2.8,0,4.6,1.7,4.6,4.4c0,2.8-1.9,4.5-4.6,4.5h-2.4v6.4h-1.8V123.4z
		 M566.6,130.8c1.8,0,2.9-1.1,2.9-2.9c0-1.8-1.1-2.9-2.9-2.9h-2.3v5.8H566.6z"/>
	<path id="XMLID_120_" class="st1" d="M596.9,123.4h1.8v13.8h5.8v1.6h-7.5V123.4z"/>
	<path id="XMLID_122_" class="st1" d="M615.5,123.4h7.3v1.6h-5.5v5.1h4.8v1.6h-4.8v5.4h5.8v1.6h-7.5V123.4z"/>
	<path id="XMLID_124_" class="st1" d="M636.9,133.8l-1.8,5h-1.8l5.8-15.4h1.8l5.8,15.4h-1.8l-1.8-5H636.9z M640,125.4l-2.5,6.9h5
		L640,125.4z"/>
	<path id="XMLID_127_" class="st1" d="M657.4,123.4h3.9c3.1,0,4.8,1.6,4.8,4.3c0,1.8-0.9,3.5-2.7,4.1l3.8,7.1h-2l-3.5-6.7h-2.6v6.7
		h-1.8V123.4z M661.3,130.6c1.8,0,2.9-0.8,2.9-2.9c0-1.6-0.9-2.7-3-2.7h-2v5.6H661.3z"/>
	<path id="XMLID_130_" class="st1" d="M678.2,123.4h1.8l8.5,12.6v-12.6h1.8v15.4h-1.8l-8.5-12.5v12.5h-1.8V123.4z"/>
	<path id="XMLID_132_" class="st1" d="M702.5,123.4h1.8v15.4h-1.8V123.4z"/>
	<path id="XMLID_134_" class="st1" d="M716.6,123.4h1.8l8.5,12.6v-12.6h1.8v15.4h-1.8l-8.5-12.5v12.5h-1.8V123.4z"/>
	<path id="XMLID_136_" class="st1" d="M753.4,125.4l-1.1,1.2c-0.7-0.7-2.1-1.8-4.5-1.8c-3.5,0-6,2.7-6,6.3c0,3.7,2.5,6.3,5.9,6.3
		c2.6,0,4-1.1,4.5-1.6v-3.2h-3.4v-1.6h5.1v5.6c-1.7,1.7-3.7,2.5-6.3,2.5c-4.4,0-7.7-3.3-7.7-8c0-4.5,3.3-8,7.8-8
		C750.8,123.1,752.6,124.6,753.4,125.4z"/>
</g>
</svg>
