<?xml version="1.0" encoding="utf-8"?>
<!-- Generator: Adobe Illustrator 19.0.0, SVG Export Plug-In . SVG Version: 6.00 Build 0)  -->
<svg version="1.1" id="Warstwa_1" xmlns="http://www.w3.org/2000/svg" xmlns:xlink="http://www.w3.org/1999/xlink" x="0px" y="0px"
	 viewBox="59 319.6 714 202.3" style="enable-background:new 59 319.6 714 202.3;" xml:space="preserve">
<style type="text/css">
	.st0{fill:#FFFFFF;}
	.st1{fill:none;}
	.st2{enable-background:new    ;}
	.st3{fill:#2DB1AC;}
</style>
<g>
	<path class="st0" d="M210.6,319.6l-75.5,75.5l0,0L59,471.2l50.7,50.7l116.9-117l-34.3-34.3l-78.6,78.6l7,7l71.6-71.6l20.4,20.4
		l-16.3,16.3L109.7,508L73,471.3l86.7-86.7l50.9-50.9l36.7,36.7L232,385.5l7,7l22.2-22.2L210.6,319.6z"/>
</g>
<rect x="303" y="327.2" class="st1" width="471" height="187"/>
<g class="st2">
	<path class="st0" d="M355.4,332.3c16.9,0,27.1,7.8,27.1,21c0,9.8-5.6,16.9-15.5,19c12.1,1.8,19.2,9.7,19.2,21.2
		c0,14.3-11.3,22.8-30.2,22.8h-36v-84H355.4z M329.6,368.5H355c11.3,0,17.9-4.9,17.9-13.7c0-8.5-6.6-13.3-17.9-13.3h-25.3V368.5z
		 M329.6,407.1H355c13.7,0,21.6-5.4,21.6-15c0-9.1-7.9-14.5-21.6-14.5h-25.3V407.1z"/>
	<path class="st0" d="M414,367.1c4.2-9.2,12-14.3,22.7-14.4v9.5c-13.3-0.2-21.6,8-22.7,20.5v33.6h-9.4V353h9.4V367.1z"/>
	<path class="st0" d="M485.5,406.5c-5,6.8-13.1,10.2-23.2,10.2c-13.1,0-21.5-8.4-21.5-19.3c0-11,8.8-18,23.6-18.1h20.8v-3.7
		c0-9.2-5.8-14.8-16.9-14.8c-7,0-13.4,2.6-20,7.2l-4-6.8c8.2-5.4,15-8.5,25.8-8.5c15.6,0,24.2,8.3,24.4,21.8l0.1,41.8h-9.1V406.5z
		 M485.4,394.4v-7.6h-19.7c-10.6,0-16.1,3.2-16.1,10.2s5.6,11.5,14.5,11.5C474.8,408.6,483,403.2,485.4,394.4z"/>
	<path class="st0" d="M573.4,377.3v39H564v-36.5c0-11.2-6.7-17.8-17.9-17.8c-12.5,0.1-20.2,8.3-21.2,20.3v34h-9.4V353h9.4v13.9
		c4.4-9.6,13-14.2,24.5-14.3C564.5,352.7,573.4,362,573.4,377.3z"/>
</g>
<g class="st2">
	<path class="st0" d="M655.3,416.3h-9.4v-13.6c-4.7,8.9-13.3,14-24.6,14c-18,0-30.5-13.3-30.5-32.2c0-19,12.5-32,30.4-32
		c11.3,0,20,5.2,24.7,14.2v-39.5h9.4V416.3z M645.9,384.8c0-13.8-9.5-23.8-22.8-23.8c-13.4,0-22.9,10-22.9,23.8
		c0,13.7,9.5,23.5,22.9,23.5C636.5,408.3,645.9,398.5,645.9,384.8z"/>
</g>
<g class="st2">
	<path class="st3" d="M687.7,416.3v-84h21.4v84H687.7z"/>
	<path class="st3" d="M767.5,412.8c-4.7,2.8-11,4.4-17.3,4.4c-12.5,0-21.5-7.1-21.5-20.5v-28.6h-9v-13.6h9v-18h20.6v17.9h16.9v13.7
		h-16.9v25.3c0,5,2.2,7.2,6,7.1c2.2,0,4.9-0.8,8-2.2L767.5,412.8z"/>
</g>
<g class="st2">
	<path class="st0" d="M381,480.4c0,5.7-1.4,10.1-4.2,13.4c-2.8,3.3-6.7,4.9-11.7,4.9c-5,0-8.9-1.6-11.7-4.9
		c-2.8-3.3-4.2-7.8-4.2-13.5c0-5.7,1.4-10.2,4.3-13.4c2.9-3.3,6.8-4.9,11.7-4.9c5,0,8.9,1.6,11.7,4.9
		C379.6,470.2,381,474.7,381,480.4z M351.8,480.4c0,5.1,1.1,9.1,3.4,11.9c2.3,2.8,5.5,4.2,9.8,4.2c4.3,0,7.6-1.4,9.9-4.2
		c2.3-2.8,3.4-6.7,3.4-11.9c0-5.1-1.1-9.1-3.4-11.8c-2.3-2.7-5.5-4.1-9.8-4.1c-4.2,0-7.5,1.4-9.8,4.2
		C352.9,471.3,351.8,475.3,351.8,480.4z"/>
	<path class="st0" d="M391.7,498.3h-2.5v-35.7h19.6v2.3h-17.1V480h16.1v2.3h-16.1V498.3z"/>
	<path class="st0" d="M416.8,498.3h-2.5v-35.7h19.6v2.3h-17.1V480h16.1v2.3h-16.1V498.3z"/>
	<path class="st0" d="M439.4,498.3v-35.7h2.5v35.7H439.4z"/>
	<path class="st0" d="M467.2,464.3c-4.5,0-8,1.4-10.6,4.3c-2.6,2.9-3.9,6.8-3.9,11.8c0,5.1,1.2,9,3.6,11.9c2.4,2.8,5.9,4.2,10.4,4.2
		c3,0,5.7-0.4,8.3-1.1v2.2c-2.4,0.8-5.3,1.2-8.8,1.2c-5,0-9-1.6-11.8-4.9c-2.9-3.2-4.3-7.8-4.3-13.6c0-3.6,0.7-6.8,2.1-9.6
		c1.4-2.8,3.4-4.9,5.9-6.4c2.6-1.5,5.6-2.3,9-2.3c3.5,0,6.6,0.7,9.4,2l-1,2.2C472.8,464.9,470.1,464.3,467.2,464.3z"/>
	<path class="st0" d="M502.5,498.3H483v-35.7h19.5v2.3h-17v13.5h16.1v2.3h-16.1V496h17V498.3z"/>
	<path class="st0" d="M538.8,464.3c-4.5,0-8,1.4-10.6,4.3c-2.6,2.9-3.9,6.8-3.9,11.8c0,5.1,1.2,9,3.6,11.9c2.4,2.8,5.9,4.2,10.4,4.2
		c3,0,5.7-0.4,8.3-1.1v2.2c-2.4,0.8-5.3,1.2-8.8,1.2c-5,0-9-1.6-11.8-4.9c-2.9-3.2-4.3-7.8-4.3-13.6c0-3.6,0.7-6.8,2.1-9.6
		c1.4-2.8,3.4-4.9,5.9-6.4c2.6-1.5,5.6-2.3,9-2.3c3.5,0,6.6,0.7,9.4,2l-1,2.2C544.4,464.9,541.7,464.3,538.8,464.3z"/>
	<path class="st0" d="M557.2,482.7v15.6h-2.5v-35.7h8.5c4.4,0,7.7,0.8,9.8,2.5c2.1,1.6,3.2,4.1,3.2,7.4c0,2.4-0.6,4.4-1.9,6.1
		c-1.3,1.6-3.2,2.8-5.8,3.5l9.7,16.3h-3l-9.2-15.6H557.2z M557.2,480.6h6.8c3,0,5.3-0.7,7-2c1.7-1.3,2.5-3.3,2.5-5.9
		c0-2.7-0.8-4.7-2.4-5.9c-1.6-1.2-4.3-1.9-8-1.9h-5.9V480.6z"/>
	<path class="st0" d="M603.9,498.3h-19.5v-35.7h19.5v2.3h-17v13.5h16.1v2.3h-16.1V496h17V498.3z"/>
	<path class="st0" d="M629.2,485.7h-14.5l-5,12.6h-2.8l14.4-35.8h1.6l14.1,35.8h-2.8L629.2,485.7z M615.6,483.4h12.8l-4.9-12.9
		c-0.4-1-0.9-2.4-1.5-4.2c-0.4,1.6-0.9,3-1.4,4.2L615.6,483.4z"/>
	<path class="st0" d="M651.3,498.3h-2.5v-33.3h-11.6v-2.3h25.7v2.3h-11.6V498.3z"/>
	<path class="st0" d="M698.2,480.4c0,5.7-1.4,10.1-4.2,13.4c-2.8,3.3-6.7,4.9-11.7,4.9c-5,0-8.9-1.6-11.7-4.9
		c-2.8-3.3-4.2-7.8-4.2-13.5c0-5.7,1.4-10.2,4.3-13.4c2.9-3.3,6.8-4.9,11.7-4.9c5,0,8.9,1.6,11.7,4.9
		C696.8,470.2,698.2,474.7,698.2,480.4z M669,480.4c0,5.1,1.1,9.1,3.4,11.9c2.3,2.8,5.5,4.2,9.8,4.2c4.3,0,7.6-1.4,9.9-4.2
		c2.3-2.8,3.4-6.7,3.4-11.9c0-5.1-1.1-9.1-3.4-11.8c-2.3-2.7-5.5-4.1-9.8-4.1c-4.2,0-7.5,1.4-9.8,4.2
		C670.1,471.3,669,475.3,669,480.4z"/>
	<path class="st0" d="M708.9,482.7v15.6h-2.5v-35.7h8.5c4.4,0,7.7,0.8,9.8,2.5c2.1,1.6,3.2,4.1,3.2,7.4c0,2.4-0.6,4.4-1.9,6.1
		c-1.3,1.6-3.2,2.8-5.8,3.5l9.7,16.3h-3l-9.2-15.6H708.9z M708.9,480.6h6.8c3,0,5.3-0.7,7-2c1.7-1.3,2.5-3.3,2.5-5.9
		c0-2.7-0.8-4.7-2.4-5.9c-1.6-1.2-4.3-1.9-8-1.9h-5.9V480.6z"/>
</g>
</svg>
