<?xml version="1.0" encoding="utf-8"?>
<!-- Generator: Adobe Illustrator 19.0.0, SVG Export Plug-In . SVG Version: 6.00 Build 0)  -->
<svg version="1.1" id="Warstwa_1" xmlns="http://www.w3.org/2000/svg" xmlns:xlink="http://www.w3.org/1999/xlink" x="0px" y="0px"
	 viewBox="0 0 714 202.3" style="enable-background:new 0 0 714 202.3;" xml:space="preserve">
<style type="text/css">
	.st0{fill:none;}
	.st1{font-family:'Montserrat-Light';}
	.st2{font-size:120px;}
	.st3{letter-spacing:12;}
	.st4{fill:#2DB1AC;}
	.st5{font-family:'Montserrat-Bold';}
	.st6{font-family:'OpenSans-Light';}
	.st7{font-size:50px;}
</style>
<g>
	<g>
		<path d="M151.6,0L76.1,75.5l0,0L0,151.6l50.7,50.7L167.6,85.3L133.3,51l-78.6,78.6l7,7L133.3,65l20.4,20.4l-16.3,16.3l-86.7,86.7
			l-36.7-36.7l86.7-86.7l50.9-50.9l36.7,36.7L173,65.9l7,7l22.2-22.2L151.6,0z M151.6,0"/>
	</g>
	<rect x="244" y="7.6" class="st0" width="471" height="187"/>
	<text transform="matrix(1 0 0 1 248.3233 96.6656)"><tspan x="0" y="0" class="st1 st2">Bran</tspan><tspan x="278.5" y="0" class="st1 st2 st3">d</tspan><tspan x="372" y="0" class="st4 st5 st2">It </tspan><tspan x="38.6" y="82" class="st6 st7">OFFICE CREATOR</tspan></text>
</g>
</svg>
